<svg width="146" height="12" viewBox="0 0 146 12" fill="none" xmlns="http://www.w3.org/2000/svg">
<path d="M9.37345 6.744H5.42545L7.35745 2.838L9.37345 6.744ZM11.5574 11H15.0714L9.49945 0.584H5.27145L0.0074453 11H3.32545L4.26345 9.096H10.5774L11.5574 11ZM21.9367 11.182C27.8867 11.182 28.9227 8.27 28.9227 6.954V6.8H25.4647C25.3807 7.038 25.0447 8.648 21.6707 8.648C18.6327 8.648 17.8067 7.024 17.8067 5.792V5.624C17.8067 4.322 18.5207 2.922 21.6427 2.922C24.9467 2.922 25.3667 4.378 25.4507 4.658H28.9087V4.504C28.9087 3.286 27.9707 0.402 21.9367 0.402H21.3627C15.2027 0.402 14.3907 3.664 14.3907 5.554V5.96C14.3907 7.808 15.3287 11.182 21.3627 11.182H21.9367ZM37.1808 11.182C43.1308 11.182 44.1668 8.27 44.1668 6.954V6.8H40.7088C40.6248 7.038 40.2888 8.648 36.9148 8.648C33.8768 8.648 33.0508 7.024 33.0508 5.792V5.624C33.0508 4.322 33.7648 2.922 36.8868 2.922C40.1908 2.922 40.6108 4.378 40.6948 4.658H44.1528V4.504C44.1528 3.286 43.2148 0.402 37.1808 0.402H36.6068C30.4468 0.402 29.6348 3.664 29.6348 5.554V5.96C29.6348 7.808 30.5728 11.182 36.6068 11.182H37.1808ZM45.299 0.584V11H56.415V8.578H48.519V6.87H56.093V4.49H48.519V2.95H56.275V0.584H45.299ZM64.2917 11.182C69.5277 11.182 70.3957 9.418 70.3957 7.696V7.5C70.3957 5.428 68.8137 4.476 64.8937 4.406L63.1437 4.378C61.0157 4.336 60.7357 3.93 60.7357 3.482C60.7357 3.034 60.9177 2.586 63.4377 2.586H63.6617C66.3917 2.586 66.6017 3.44 66.6717 3.832H70.0597V3.692C70.0597 2.124 68.9397 0.402 64.0117 0.402H63.0457C58.2997 0.402 57.3757 2.026 57.3757 3.58V3.706C57.3757 5.33 58.5657 6.646 62.4577 6.758L64.2497 6.8C66.6577 6.87 66.9797 7.248 66.9797 7.85C66.9797 8.41 66.6717 8.956 63.9277 8.956H63.7317C61.0437 8.956 60.6797 7.934 60.6377 7.304H57.2357V7.458C57.2357 8.83 57.8657 11.182 63.3257 11.182H64.2917ZM78.032 11.182C83.268 11.182 84.136 9.418 84.136 7.696V7.5C84.136 5.428 82.554 4.476 78.634 4.406L76.884 4.378C74.756 4.336 74.476 3.93 74.476 3.482C74.476 3.034 74.658 2.586 77.178 2.586H77.402C80.132 2.586 80.342 3.44 80.412 3.832H83.8V3.692C83.8 2.124 82.68 0.402 77.752 0.402H76.786C72.04 0.402 71.116 2.026 71.116 3.58V3.706C71.116 5.33 72.306 6.646 76.198 6.758L77.99 6.8C80.398 6.87 80.72 7.248 80.72 7.85C80.72 8.41 80.412 8.956 77.668 8.956H77.472C74.784 8.956 74.42 7.934 74.378 7.304H70.976V7.458C70.976 8.83 71.606 11.182 77.066 11.182H78.032ZM92.1642 0.402C85.5702 0.402 84.8282 3.692 84.8282 5.554V5.974C84.8282 7.808 85.5702 11.182 92.1642 11.182H92.7662C99.3322 11.182 100.088 7.808 100.088 5.974V5.554C100.088 3.692 99.3182 0.402 92.7662 0.402H92.1642ZM96.6722 5.848C96.6722 7.052 95.9582 8.648 92.4582 8.648C88.9302 8.648 88.2442 7.01 88.2442 5.82V5.652C88.2442 4.462 88.8742 2.922 92.4582 2.922C95.9862 2.922 96.6722 4.462 96.6722 5.652V5.848ZM104.52 2.95H109.462C110.414 2.95 110.778 3.412 110.778 3.958V3.972C110.778 4.546 110.4 4.994 109.462 4.994H104.52V2.95ZM104.52 7.304H108.776C110.386 7.304 110.946 7.864 110.946 9.138V10.342C110.946 10.72 111.002 10.874 111.1 11H114.418V10.93C114.32 10.762 114.222 10.496 114.222 9.656V8.13C114.222 6.786 113.312 6.044 112.248 5.736C112.934 5.512 114.18 4.952 114.18 3.454V3.286C114.18 1.788 113.13 0.584 109.658 0.584H101.258V11H104.52V7.304ZM118.766 0.584H115.504V11H118.766V0.584ZM120.358 0.584V11H131.474V8.578H123.578V6.87H131.152V4.49H123.578V2.95H131.334V0.584H120.358ZM139.35 11.182C144.586 11.182 145.454 9.418 145.454 7.696V7.5C145.454 5.428 143.872 4.476 139.952 4.406L138.202 4.378C136.074 4.336 135.794 3.93 135.794 3.482C135.794 3.034 135.976 2.586 138.496 2.586H138.72C141.45 2.586 141.66 3.44 141.73 3.832H145.118V3.692C145.118 2.124 143.998 0.402 139.07 0.402H138.104C133.358 0.402 132.434 2.026 132.434 3.58V3.706C132.434 5.33 133.624 6.646 137.516 6.758L139.308 6.8C141.716 6.87 142.038 7.248 142.038 7.85C142.038 8.41 141.73 8.956 138.986 8.956H138.79C136.102 8.956 135.738 7.934 135.696 7.304H132.294V7.458C132.294 8.83 132.924 11.182 138.384 11.182H139.35Z" fill="white"/>
</svg>
