<svg width="59" height="12" viewBox="0 0 59 12" fill="none" xmlns="http://www.w3.org/2000/svg">
<path d="M0.814602 11H9.8166C13.1906 11 14.1286 9.642 14.1286 8.004V7.808C14.1286 5.974 12.6026 5.372 11.8886 5.19C12.3926 5.036 13.5406 4.518 13.5406 3.16V2.964C13.5406 1.732 12.7146 0.584 9.7326 0.584H0.814602V11ZM9.1726 2.782C10.0826 2.782 10.3066 3.174 10.3066 3.608V3.636C10.3066 4.056 10.0826 4.476 9.1726 4.476H4.0766V2.782H9.1726ZM9.4526 6.688C10.5306 6.688 10.7406 7.206 10.7406 7.654V7.71C10.7406 8.13 10.5306 8.732 9.4526 8.732H4.0766V6.688H9.4526ZM18.4321 0.584H15.1701V11H18.4321V0.584ZM23.2856 11V6.086L28.7876 11H33.0436L26.7716 5.344L32.7636 0.584H28.6196L23.2856 4.924V0.584H20.0236V11H23.2856ZM33.5724 0.584V11H44.6884V8.578H36.7924V6.87H44.3664V4.49H36.7924V2.95H44.5484V0.584H33.5724ZM52.5652 11.182C57.8012 11.182 58.6692 9.418 58.6692 7.696V7.5C58.6692 5.428 57.0872 4.476 53.1672 4.406L51.4172 4.378C49.2892 4.336 49.0092 3.93 49.0092 3.482C49.0092 3.034 49.1912 2.586 51.7112 2.586H51.9352C54.6652 2.586 54.8752 3.44 54.9452 3.832H58.3332V3.692C58.3332 2.124 57.2132 0.402 52.2852 0.402H51.3192C46.5732 0.402 45.6492 2.026 45.6492 3.58V3.706C45.6492 5.33 46.8392 6.646 50.7312 6.758L52.5232 6.8C54.9312 6.87 55.2532 7.248 55.2532 7.85C55.2532 8.41 54.9452 8.956 52.2012 8.956H52.0052C49.3172 8.956 48.9532 7.934 48.9112 7.304H45.5092V7.458C45.5092 8.83 46.1392 11.182 51.5992 11.182H52.5652Z" fill="white"/>
</svg>
