<svg width="94" height="12" viewBox="0 0 94 12" fill="none" xmlns="http://www.w3.org/2000/svg">
<path d="M0.589016 0.584V11H11.705V8.578H3.80902V6.87H11.383V4.49H3.80902V2.95H11.565V0.584H0.589016ZM16.1378 11L19.3018 7.766L22.4938 11H26.5958L21.4858 5.666L26.4838 0.584H22.4798L19.5398 3.636L16.5998 0.584H12.2318L17.2998 5.736L12.1198 11H16.1378ZM35.0612 7.528C38.7852 7.528 39.9192 5.974 39.9192 4.112V3.972C39.9192 2.068 38.8132 0.584 35.0612 0.584H27.2492V11H30.5112V7.528H35.0612ZM30.5112 2.95H35.0052C36.0552 2.95 36.5172 3.342 36.5172 4.056V4.098C36.5172 4.812 36.0272 5.19 35.0052 5.19H30.5112V2.95ZM41.0031 0.584V11H51.5031V8.41H44.2651V0.584H41.0031ZM59.1984 0.402C52.6044 0.402 51.8624 3.692 51.8624 5.554V5.974C51.8624 7.808 52.6044 11.182 59.1984 11.182H59.8004C66.3664 11.182 67.1224 7.808 67.1224 5.974V5.554C67.1224 3.692 66.3524 0.402 59.8004 0.402H59.1984ZM63.7064 5.848C63.7064 7.052 62.9924 8.648 59.4924 8.648C55.9644 8.648 55.2784 7.01 55.2784 5.82V5.652C55.2784 4.462 55.9084 2.922 59.4924 2.922C63.0204 2.922 63.7064 4.462 63.7064 5.652V5.848ZM71.5541 2.95H76.4961C77.4481 2.95 77.8121 3.412 77.8121 3.958V3.972C77.8121 4.546 77.4341 4.994 76.4961 4.994H71.5541V2.95ZM71.5541 7.304H75.8101C77.4201 7.304 77.9801 7.864 77.9801 9.138V10.342C77.9801 10.72 78.0361 10.874 78.1341 11H81.4521V10.93C81.3541 10.762 81.2561 10.496 81.2561 9.656V8.13C81.2561 6.786 80.3461 6.044 79.2821 5.736C79.9681 5.512 81.2141 4.952 81.2141 3.454V3.286C81.2141 1.788 80.1641 0.584 76.6921 0.584H68.2921V11H71.5541V7.304ZM82.5382 0.584V11H93.6542V8.578H85.7582V6.87H93.3322V4.49H85.7582V2.95H93.5142V0.584H82.5382Z" fill="white"/>
</svg>
