<svg width="108" height="12" viewBox="0 0 108 12" fill="none" xmlns="http://www.w3.org/2000/svg">
<path d="M0.971828 0.584V11H4.19183V4.098L11.2618 11H14.4818V0.584H11.2618V7.136L4.61183 0.584H0.971828ZM16.0793 0.584V11H27.1953V8.578H19.2993V6.87H26.8733V4.49H19.2993V2.95H27.0553V0.584H16.0793ZM35.464 11L37.83 4.028L40.336 11H43.626L47.84 0.584H44.634L42.002 7.542L39.622 0.584H36.15L33.826 7.752L31.138 0.584H27.582L31.866 11H35.464ZM56.8486 11H60.1386V3.048H64.6326V0.584H52.3686V3.048H56.8486V11ZM65.8175 0.584V11H76.9335V8.578H69.0375V6.87H76.6115V4.49H69.0375V2.95H76.7935V0.584H65.8175ZM85.3849 11.182C91.3349 11.182 92.3709 8.27 92.3709 6.954V6.8H88.9129C88.8289 7.038 88.4929 8.648 85.1189 8.648C82.0809 8.648 81.2549 7.024 81.2549 5.792V5.624C81.2549 4.322 81.9689 2.922 85.0909 2.922C88.3949 2.922 88.8149 4.378 88.8989 4.658H92.3569V4.504C92.3569 3.286 91.4189 0.402 85.3849 0.402H84.8109C78.6509 0.402 77.8389 3.664 77.8389 5.554V5.96C77.8389 7.808 78.7769 11.182 84.8109 11.182H85.3849ZM93.5031 11H96.7651V6.898H103.765V11H107.027V0.584H103.765V4.378H96.7651V0.584H93.5031V11Z" fill="white"/>
</svg>
