<svg viewBox="0 0 306 148" fill="none" xmlns="http://www.w3.org/2000/svg">
<path d="M1.552 142.317L6.502 142.317L6.502 135.801L7.654 135.801L7.654 142.317L13 142.317L13 143.649L0.399999 143.649L0.399999 135.009L1.552 135.009L1.552 142.317ZM13.108 127.183C13.108 128.815 12.64 130.087 11.704 130.999C10.768 131.911 9.406 132.367 7.618 132.367L0.399998 132.367L0.399998 131.035L7.564 131.035C9.028 131.035 10.12 130.705 10.84 130.045C11.56 129.385 11.92 128.431 11.92 127.183C11.92 125.923 11.56 124.963 10.84 124.303C10.12 123.643 9.028 123.313 7.564 123.313L0.399998 123.313L0.399998 122.017L7.618 122.017C9.406 122.017 10.768 122.473 11.704 123.385C12.64 124.285 13.108 125.551 13.108 127.183ZM11.848 109.093L13 109.093L13 118.003L0.399998 118.003L0.399997 109.363L1.552 109.363L1.552 116.671L6.034 116.671L6.034 110.155L7.168 110.155L7.168 116.671L11.848 116.671L11.848 109.093ZM0.399997 105.962L0.399997 104.63L11.848 104.63L11.848 97.5737L13 97.5737L13 105.962L0.399997 105.962ZM13.108 85.1791C13.108 86.4271 12.832 87.5551 12.28 88.5631C11.728 89.5591 10.966 90.3451 9.994 90.9211C9.01 91.4851 7.912 91.7671 6.7 91.7671C5.488 91.7671 4.396 91.4851 3.424 90.9211C2.44 90.3451 1.672 89.5531 1.12 88.5451C0.567997 87.5371 0.291997 86.4091 0.291997 85.1611C0.291997 84.2251 0.447997 83.3611 0.759997 82.5691C1.072 81.7771 1.528 81.1051 2.128 80.5531L2.974 81.3991C1.978 82.3831 1.48 83.6251 1.48 85.1251C1.48 86.1211 1.708 87.0271 2.164 87.8431C2.62 88.6591 3.244 89.3011 4.036 89.7691C4.828 90.2251 5.716 90.4531 6.7 90.4531C7.684 90.4531 8.572 90.2251 9.364 89.7691C10.156 89.3011 10.78 88.6591 11.236 87.8431C11.692 87.0271 11.92 86.1211 11.92 85.1251C11.92 83.6131 11.416 82.3711 10.408 81.3991L11.254 80.5531C11.854 81.1051 12.316 81.7831 12.64 82.5871C12.952 83.3791 13.108 84.2431 13.108 85.1791ZM9.634 70.128L9.634 77.148L13 78.66L13 80.046L0.399996 74.286L0.399996 72.972L13 67.212L13 68.616L9.634 70.128ZM8.554 70.614L1.786 73.638L8.554 76.662L8.554 70.614ZM0.399995 60.4117C0.399995 58.8037 0.783995 57.5437 1.552 56.6317C2.32 55.7197 3.376 55.2637 4.72 55.2637C6.064 55.2637 7.12 55.7197 7.888 56.6317C8.644 57.5437 9.022 58.8037 9.022 60.4117L9.022 63.7957L13 63.7957L13 65.1277L0.399996 65.1277L0.399995 60.4117ZM7.852 60.4477C7.852 59.1997 7.582 58.2457 7.042 57.5857C6.49 56.9257 5.716 56.5957 4.72 56.5957C3.7 56.5957 2.92 56.9257 2.38 57.5857C1.828 58.2457 1.552 59.1997 1.552 60.4477L1.552 63.7957L7.852 63.7957L7.852 60.4477ZM9.634 45.1144L9.634 52.1344L13 53.6464L13 55.0324L0.399995 49.2724L0.399995 47.9584L13 42.1984L13 43.6024L9.634 45.1144ZM8.554 45.6004L1.786 48.6244L8.554 51.6484L8.554 45.6004ZM13.108 34.8178C13.108 36.0658 12.832 37.1938 12.28 38.2018C11.728 39.1978 10.966 39.9838 9.994 40.5598C9.01 41.1238 7.912 41.4058 6.69999 41.4058C5.48799 41.4058 4.39599 41.1238 3.424 40.5598C2.43999 39.9838 1.67199 39.1918 1.11999 38.1838C0.567995 37.1758 0.291995 36.0478 0.291995 34.7998C0.291994 33.8638 0.447995 32.9998 0.759995 32.2078C1.07199 31.4158 1.52799 30.7438 2.12799 30.1918L2.97399 31.0378C1.97799 32.0218 1.47999 33.2638 1.47999 34.7638C1.47999 35.7598 1.70799 36.6658 2.16399 37.4818C2.61999 38.2978 3.24399 38.9398 4.03599 39.4078C4.82799 39.8638 5.716 40.0918 6.69999 40.0918C7.684 40.0918 8.572 39.8638 9.364 39.4078C10.156 38.9398 10.78 38.2978 11.236 37.4818C11.692 36.6658 11.92 35.7598 11.92 34.7638C11.92 33.2518 11.416 32.0098 10.408 31.0378L11.254 30.1918C11.854 30.7438 12.316 31.4218 12.64 32.2258C12.952 33.0178 13.108 33.8818 13.108 34.8178ZM0.399994 27.3523L0.399994 26.0203L13 26.0203L13 27.3523L0.399994 27.3523ZM1.55199 19.4727L1.55199 23.9007L0.399994 23.9007L0.399993 13.7127L1.55199 13.7127L1.55199 18.1407L13 18.1407L13 19.4727L1.55199 19.4727ZM8.64399 7.35261L13 7.35261L13 8.66661L8.64399 8.66661L0.399993 13.7066L0.399993 12.2846L7.47399 7.96461L0.399993 3.64461L0.399993 2.31261L8.64399 7.35261Z" fill="#3F3E44"/>
<path d="M52.48 117.2C53.36 117.248 54.028 117.488 54.484 117.92C54.948 118.344 55.18 118.9 55.18 119.588C55.18 120.068 55.064 120.496 54.832 120.872C54.6 121.24 54.256 121.532 53.8 121.748C53.344 121.964 52.788 122.072 52.132 122.072C51.524 122.072 50.948 121.976 50.404 121.784C49.868 121.584 49.436 121.32 49.108 120.992L49.528 120.308C49.808 120.596 50.18 120.832 50.644 121.016C51.108 121.192 51.604 121.28 52.132 121.28C52.82 121.28 53.352 121.132 53.728 120.836C54.104 120.532 54.292 120.116 54.292 119.588C54.292 119.068 54.104 118.66 53.728 118.364C53.352 118.068 52.784 117.92 52.024 117.92H51.424V117.284L53.752 114.368H49.456V113.6H54.856V114.212L52.48 117.2ZM57.6454 122.06C57.4694 122.06 57.3174 121.996 57.1894 121.868C57.0694 121.74 57.0094 121.584 57.0094 121.4C57.0094 121.216 57.0694 121.064 57.1894 120.944C57.3174 120.816 57.4694 120.752 57.6454 120.752C57.8214 120.752 57.9734 120.816 58.1014 120.944C58.2294 121.064 58.2934 121.216 58.2934 121.4C58.2934 121.584 58.2294 121.74 58.1014 121.868C57.9734 121.996 57.8214 122.06 57.6454 122.06ZM65.9278 113.6V114.212L62.4118 122H61.4758L64.9318 114.368H60.6118V115.94H59.7598V113.6H65.9278ZM72.1508 113.6H73.0388V122H72.1508V113.6ZM85.0959 113.6V122H84.2439V115.28L80.9439 120.932H80.5239L77.2239 115.316V122H76.3719V113.6H77.1039L80.7519 119.828L84.3639 113.6H85.0959ZM91.5768 113.6C92.6488 113.6 93.4888 113.856 94.0968 114.368C94.7048 114.88 95.0088 115.584 95.0088 116.48C95.0088 117.376 94.7048 118.08 94.0968 118.592C93.4888 119.096 92.6488 119.348 91.5768 119.348H89.3208V122H88.4328V113.6H91.5768ZM91.5528 118.568C92.3848 118.568 93.0208 118.388 93.4608 118.028C93.9008 117.66 94.1208 117.144 94.1208 116.48C94.1208 115.8 93.9008 115.28 93.4608 114.92C93.0208 114.552 92.3848 114.368 91.5528 114.368H89.3208V118.568H91.5528ZM107.303 117.8H108.155V121.004C107.763 121.348 107.299 121.612 106.763 121.796C106.227 121.98 105.663 122.072 105.071 122.072C104.231 122.072 103.475 121.888 102.803 121.52C102.131 121.152 101.603 120.644 101.219 119.996C100.835 119.34 100.643 118.608 100.643 117.8C100.643 116.992 100.835 116.264 101.219 115.616C101.603 114.96 102.131 114.448 102.803 114.08C103.475 113.712 104.235 113.528 105.083 113.528C105.723 113.528 106.311 113.632 106.847 113.84C107.383 114.04 107.835 114.34 108.203 114.74L107.651 115.304C106.987 114.648 106.143 114.32 105.119 114.32C104.439 114.32 103.823 114.472 103.271 114.776C102.727 115.072 102.299 115.488 101.987 116.024C101.675 116.552 101.519 117.144 101.519 117.8C101.519 118.456 101.675 119.048 101.987 119.576C102.299 120.104 102.727 120.52 103.271 120.824C103.815 121.128 104.427 121.28 105.107 121.28C105.971 121.28 106.703 121.064 107.303 120.632V117.8ZM116.536 119.756H111.856L110.848 122H109.924L113.764 113.6H114.64L118.48 122H117.544L116.536 119.756ZM116.212 119.036L114.196 114.524L112.18 119.036H116.212ZM120.47 113.6H121.358V121.232H126.062V122H120.47V113.6Z" fill="white"/>
<path d="M55.176 72.248L55.176 87H62.568L62.568 63.192H56.744C55.656 65.688 53.736 67.512 49.64 67.768V72.248H55.176ZM65.6513 63.192V73.464H73.2033V68.568H86.6433C86.4833 69.08 85.4593 70.008 81.9713 73.336C77.1393 77.912 75.7633 80.216 75.7633 83.992V87H84.3073V86.712C84.3073 82.904 84.5312 79.992 88.1793 75.16C90.6113 71.96 93.1073 69.4 94.0993 68.216V63.192L65.6513 63.192ZM106.449 63.192V87H130.449V81.08H113.905V63.192L106.449 63.192Z" fill="white"/>
<path d="M56.764 33.792H55.084V36H54.22V33.792H49.48V33.168L53.932 27.6H54.892L50.596 33.024H54.244V31.08H55.084V33.024H56.764V33.792ZM59.04 36.06C58.864 36.06 58.712 35.996 58.584 35.868C58.464 35.74 58.404 35.584 58.404 35.4C58.404 35.216 58.464 35.064 58.584 34.944C58.712 34.816 58.864 34.752 59.04 34.752C59.216 34.752 59.368 34.816 59.496 34.944C59.624 35.064 59.688 35.216 59.688 35.4C59.688 35.584 59.624 35.74 59.496 35.868C59.368 35.996 59.216 36.06 59.04 36.06ZM63.7429 31.044C64.9589 31.044 65.8429 31.264 66.3949 31.704C66.9549 32.136 67.2349 32.744 67.2349 33.528C67.2349 34.016 67.1189 34.452 66.8869 34.836C66.6629 35.22 66.3229 35.524 65.8669 35.748C65.4109 35.964 64.8509 36.072 64.1869 36.072C63.5869 36.072 63.0149 35.976 62.4709 35.784C61.9349 35.584 61.5029 35.32 61.1749 34.992L61.5949 34.308C61.8749 34.596 62.2429 34.832 62.6989 35.016C63.1549 35.192 63.6469 35.28 64.1749 35.28C64.8709 35.28 65.4069 35.124 65.7829 34.812C66.1669 34.5 66.3589 34.084 66.3589 33.564C66.3589 32.988 66.1429 32.552 65.7109 32.256C65.2869 31.96 64.5669 31.812 63.5509 31.812H61.7629L62.1949 27.6H66.7909V28.368H62.9509L62.6629 31.044H63.7429ZM76.8004 36.072C75.7124 36.072 74.8644 35.76 74.2564 35.136C73.6484 34.512 73.3444 33.604 73.3444 32.412V27.6H74.2324V32.376C74.2324 33.352 74.4524 34.08 74.8924 34.56C75.3324 35.04 75.9684 35.28 76.8004 35.28C77.6404 35.28 78.2804 35.04 78.7204 34.56C79.1604 34.08 79.3804 33.352 79.3804 32.376V27.6H80.2444V32.412C80.2444 33.604 79.9404 34.512 79.3324 35.136C78.7324 35.76 77.8884 36.072 76.8004 36.072ZM85.8363 36.072C85.2123 36.072 84.6123 35.972 84.0363 35.772C83.4683 35.572 83.0283 35.308 82.7163 34.98L83.0643 34.296C83.3683 34.6 83.7723 34.848 84.2763 35.04C84.7803 35.224 85.3003 35.316 85.8363 35.316C86.5883 35.316 87.1523 35.18 87.5283 34.908C87.9043 34.628 88.0923 34.268 88.0923 33.828C88.0923 33.492 87.9883 33.224 87.7803 33.024C87.5803 32.824 87.3323 32.672 87.0363 32.568C86.7403 32.456 86.3283 32.336 85.8003 32.208C85.1683 32.048 84.6643 31.896 84.2883 31.752C83.9123 31.6 83.5883 31.372 83.3163 31.068C83.0523 30.764 82.9203 30.352 82.9203 29.832C82.9203 29.408 83.0323 29.024 83.2563 28.68C83.4803 28.328 83.8243 28.048 84.2883 27.84C84.7523 27.632 85.3283 27.528 86.0163 27.528C86.4963 27.528 86.9643 27.596 87.4203 27.732C87.8843 27.86 88.2843 28.04 88.6203 28.272L88.3203 28.98C87.9683 28.748 87.5923 28.576 87.1923 28.464C86.7923 28.344 86.4003 28.284 86.0163 28.284C85.2803 28.284 84.7243 28.428 84.3483 28.716C83.9803 28.996 83.7963 29.36 83.7963 29.808C83.7963 30.144 83.8963 30.416 84.0963 30.624C84.3043 30.824 84.5603 30.98 84.8643 31.092C85.1763 31.196 85.5923 31.312 86.1123 31.44C86.7283 31.592 87.2243 31.744 87.6003 31.896C87.9843 32.04 88.3083 32.264 88.5723 32.568C88.8363 32.864 88.9683 33.268 88.9683 33.78C88.9683 34.204 88.8523 34.592 88.6203 34.944C88.3963 35.288 88.0483 35.564 87.5763 35.772C87.1043 35.972 86.5243 36.072 85.8363 36.072ZM101.16 31.8H102.012V35.004C101.62 35.348 101.156 35.612 100.62 35.796C100.084 35.98 99.5198 36.072 98.9278 36.072C98.0878 36.072 97.3318 35.888 96.6598 35.52C95.9878 35.152 95.4598 34.644 95.0758 33.996C94.6918 33.34 94.4998 32.608 94.4998 31.8C94.4998 30.992 94.6918 30.264 95.0758 29.616C95.4598 28.96 95.9878 28.448 96.6598 28.08C97.3318 27.712 98.0918 27.528 98.9398 27.528C99.5798 27.528 100.168 27.632 100.704 27.84C101.24 28.04 101.692 28.34 102.06 28.74L101.508 29.304C100.844 28.648 99.9998 28.32 98.9758 28.32C98.2958 28.32 97.6798 28.472 97.1278 28.776C96.5838 29.072 96.1558 29.488 95.8438 30.024C95.5318 30.552 95.3758 31.144 95.3758 31.8C95.3758 32.456 95.5318 33.048 95.8438 33.576C96.1558 34.104 96.5838 34.52 97.1278 34.824C97.6718 35.128 98.2838 35.28 98.9638 35.28C99.8278 35.28 100.56 35.064 101.16 34.632V31.8ZM110.393 33.756H105.713L104.705 36H103.781L107.621 27.6H108.497L112.337 36H111.401L110.393 33.756ZM110.069 33.036L108.053 28.524L106.037 33.036H110.069ZM114.327 27.6H115.215V35.232H119.919V36H114.327V27.6Z" fill="white"/>
</svg>
