<svg width="260" height="148" viewBox="0 0 306 148" fill="none" xmlns="http://www.w3.org/2000/svg">
<path d="M0.399997 103.443C0.399997 101.835 0.783997 100.575 1.552 99.6629C2.32 98.7509 3.376 98.2949 4.72 98.2949C6.064 98.2949 7.12 98.7509 7.888 99.6629C8.644 100.575 9.022 101.835 9.022 103.443L9.022 106.827L13 106.827L13 108.159L0.399997 108.159L0.399997 103.443ZM7.852 103.479C7.852 102.231 7.582 101.277 7.042 100.617C6.49 99.9569 5.716 99.6269 4.72 99.6269C3.7 99.6269 2.92 99.9569 2.38 100.617C1.828 101.277 1.552 102.231 1.552 103.479L1.552 106.827L7.852 106.827L7.852 103.479ZM13.108 89.731C13.108 90.979 12.832 92.113 12.28 93.133C11.716 94.141 10.948 94.933 9.976 95.509C9.004 96.073 7.912 96.355 6.7 96.355C5.488 96.355 4.396 96.073 3.424 95.509C2.452 94.933 1.69 94.141 1.138 93.133C0.573997 92.113 0.291997 90.979 0.291997 89.731C0.291997 88.483 0.567997 87.361 1.12 86.365C1.672 85.357 2.44 84.565 3.424 83.989C4.396 83.413 5.488 83.125 6.7 83.125C7.912 83.125 9.01 83.413 9.994 83.989C10.966 84.565 11.728 85.357 12.28 86.365C12.832 87.361 13.108 88.483 13.108 89.731ZM11.92 89.731C11.92 88.735 11.698 87.835 11.254 87.031C10.798 86.227 10.174 85.597 9.382 85.141C8.578 84.685 7.684 84.457 6.7 84.457C5.716 84.457 4.828 84.685 4.036 85.141C3.232 85.597 2.608 86.227 2.164 87.031C1.708 87.835 1.48 88.735 1.48 89.731C1.48 90.727 1.708 91.633 2.164 92.449C2.608 93.253 3.232 93.889 4.036 94.357C4.828 94.813 5.716 95.041 6.7 95.041C7.684 95.041 8.578 94.813 9.382 94.357C10.174 93.889 10.798 93.253 11.254 92.449C11.698 91.633 11.92 90.727 11.92 89.731ZM0.399995 63.2281L13 67.4761L13 68.8801L2.254 72.5701L13 76.2781L13 77.6641L0.399996 81.9121L0.399996 80.5441L11.236 76.9081L0.399996 73.1461L0.399996 71.9041L11.29 68.1961L0.399995 64.5061L0.399995 63.2281ZM11.848 51.8759L13 51.8759L13 60.7859L0.399995 60.7859L0.399995 52.1459L1.552 52.1459L1.552 59.4539L6.034 59.4539L6.034 52.9379L7.168 52.9379L7.168 59.4539L11.848 59.4539L11.848 51.8759ZM13 40.1409L8.95 43.0209C8.986 43.3449 9.004 43.6809 9.004 44.0289L9.004 47.4129L13 47.4129L13 48.7449L0.399995 48.7449L0.399995 44.0289C0.399995 42.4209 0.783995 41.1609 1.55199 40.2489C2.31999 39.3369 3.37599 38.8809 4.72 38.8809C5.70399 38.8809 6.53799 39.1329 7.222 39.6369C7.894 40.1289 8.38 40.8369 8.68 41.7609L13 38.6829L13 40.1409ZM7.86999 44.0649C7.86999 42.8169 7.59399 41.8629 7.04199 41.2029C6.49 40.5429 5.716 40.2129 4.72 40.2129C3.7 40.2129 2.91999 40.5429 2.37999 41.2029C1.82799 41.8629 1.55199 42.8169 1.55199 44.0649L1.55199 47.4129L7.87 47.4129L7.86999 44.0649Z" fill="#3F3E44"/>
<path d="M52.24 113.528C53.352 113.528 54.204 113.896 54.796 114.632C55.388 115.36 55.684 116.392 55.684 117.728C55.684 118.664 55.524 119.456 55.204 120.104C54.884 120.752 54.436 121.244 53.86 121.58C53.284 121.908 52.612 122.072 51.844 122.072C51.012 122.072 50.348 121.92 49.852 121.616L50.2 120.92C50.6 121.184 51.144 121.316 51.832 121.316C52.76 121.316 53.488 121.024 54.016 120.44C54.544 119.848 54.808 118.992 54.808 117.872C54.808 117.664 54.796 117.436 54.772 117.188C54.564 117.644 54.232 118 53.776 118.256C53.32 118.504 52.796 118.628 52.204 118.628C51.652 118.628 51.16 118.524 50.728 118.316C50.304 118.108 49.972 117.816 49.732 117.44C49.492 117.056 49.372 116.612 49.372 116.108C49.372 115.596 49.496 115.144 49.744 114.752C49.992 114.36 50.332 114.06 50.764 113.852C51.204 113.636 51.696 113.528 52.24 113.528ZM52.336 117.896C52.76 117.896 53.132 117.816 53.452 117.656C53.78 117.496 54.036 117.276 54.22 116.996C54.404 116.716 54.496 116.404 54.496 116.06C54.496 115.74 54.408 115.444 54.232 115.172C54.064 114.9 53.812 114.68 53.476 114.512C53.14 114.344 52.74 114.26 52.276 114.26C51.668 114.26 51.172 114.428 50.788 114.764C50.412 115.092 50.224 115.532 50.224 116.084C50.224 116.636 50.412 117.076 50.788 117.404C51.172 117.732 51.688 117.896 52.336 117.896ZM58.0556 122.06C57.8796 122.06 57.7276 121.996 57.5996 121.868C57.4796 121.74 57.4196 121.584 57.4196 121.4C57.4196 121.216 57.4796 121.064 57.5996 120.944C57.7276 120.816 57.8796 120.752 58.0556 120.752C58.2316 120.752 58.3836 120.816 58.5116 120.944C58.6396 121.064 58.7036 121.216 58.7036 121.4C58.7036 121.584 58.6396 121.74 58.5116 121.868C58.3836 121.996 58.2316 122.06 58.0556 122.06ZM66.4038 121.232V122H60.5117V121.388L64.0037 117.968C64.4438 117.536 64.7398 117.164 64.8917 116.852C65.0518 116.532 65.1318 116.212 65.1318 115.892C65.1318 115.396 64.9598 115.012 64.6157 114.74C64.2797 114.46 63.7958 114.32 63.1638 114.32C62.1797 114.32 61.4157 114.632 60.8717 115.256L60.2597 114.728C60.5877 114.344 61.0037 114.048 61.5077 113.84C62.0197 113.632 62.5957 113.528 63.2357 113.528C64.0918 113.528 64.7678 113.732 65.2638 114.14C65.7678 114.54 66.0198 115.092 66.0198 115.796C66.0198 116.228 65.9238 116.644 65.7318 117.044C65.5398 117.444 65.1758 117.904 64.6398 118.424L61.7837 121.232H66.4038ZM70.2961 117.044C71.5121 117.044 72.3961 117.264 72.9481 117.704C73.5081 118.136 73.7881 118.744 73.7881 119.528C73.7881 120.016 73.6721 120.452 73.4401 120.836C73.2161 121.22 72.8761 121.524 72.4201 121.748C71.9641 121.964 71.4041 122.072 70.7401 122.072C70.1401 122.072 69.5681 121.976 69.0241 121.784C68.4881 121.584 68.0561 121.32 67.7281 120.992L68.1481 120.308C68.4281 120.596 68.7961 120.832 69.2521 121.016C69.7081 121.192 70.2001 121.28 70.7281 121.28C71.4241 121.28 71.9601 121.124 72.3361 120.812C72.7201 120.5 72.9121 120.084 72.9121 119.564C72.9121 118.988 72.6961 118.552 72.2641 118.256C71.8401 117.96 71.1201 117.812 70.1041 117.812H68.3161L68.7481 113.6H73.3441V114.368H69.5041L69.2161 117.044H70.2961ZM78.8329 122.072C78.1849 122.072 77.6049 121.9 77.0929 121.556C76.5889 121.212 76.1929 120.72 75.9049 120.08C75.6249 119.432 75.4849 118.672 75.4849 117.8C75.4849 116.928 75.6249 116.172 75.9049 115.532C76.1929 114.884 76.5889 114.388 77.0929 114.044C77.6049 113.7 78.1849 113.528 78.8329 113.528C79.4809 113.528 80.0569 113.7 80.5609 114.044C81.0729 114.388 81.4729 114.884 81.7609 115.532C82.0489 116.172 82.1929 116.928 82.1929 117.8C82.1929 118.672 82.0489 119.432 81.7609 120.08C81.4729 120.72 81.0729 121.212 80.5609 121.556C80.0569 121.9 79.4809 122.072 78.8329 122.072ZM78.8329 121.28C79.3209 121.28 79.7489 121.144 80.1169 120.872C80.4929 120.6 80.7849 120.204 80.9929 119.684C81.2009 119.164 81.3049 118.536 81.3049 117.8C81.3049 117.064 81.2009 116.436 80.9929 115.916C80.7849 115.396 80.4929 115 80.1169 114.728C79.7489 114.456 79.3209 114.32 78.8329 114.32C78.3449 114.32 77.9129 114.456 77.5369 114.728C77.1689 115 76.8809 115.396 76.6729 115.916C76.4649 116.436 76.3609 117.064 76.3609 117.8C76.3609 118.536 76.4649 119.164 76.6729 119.684C76.8809 120.204 77.1689 120.6 77.5369 120.872C77.9129 121.144 78.3449 121.28 78.8329 121.28ZM94.2509 122L92.3309 119.3C92.1149 119.324 91.8909 119.336 91.6589 119.336H89.4029V122H88.5149V113.6H91.6589C92.7309 113.6 93.5709 113.856 94.1789 114.368C94.7869 114.88 95.0909 115.584 95.0909 116.48C95.0909 117.136 94.9229 117.692 94.5869 118.148C94.2589 118.596 93.7869 118.92 93.1709 119.12L95.2229 122H94.2509ZM91.6349 118.58C92.4669 118.58 93.1029 118.396 93.5429 118.028C93.9829 117.66 94.2029 117.144 94.2029 116.48C94.2029 115.8 93.9829 115.28 93.5429 114.92C93.1029 114.552 92.4669 114.368 91.6349 114.368H89.4029V118.58H91.6349ZM100.931 113.6C102.003 113.6 102.843 113.856 103.451 114.368C104.059 114.88 104.363 115.584 104.363 116.48C104.363 117.376 104.059 118.08 103.451 118.592C102.843 119.096 102.003 119.348 100.931 119.348H98.6748V122H97.7868V113.6H100.931ZM100.907 118.568C101.739 118.568 102.375 118.388 102.815 118.028C103.255 117.66 103.475 117.144 103.475 116.48C103.475 115.8 103.255 115.28 102.815 114.92C102.375 114.552 101.739 114.368 100.907 114.368H98.6748V118.568H100.907ZM115.607 113.6V122H114.755V115.28L111.455 120.932H111.035L107.735 115.316V122H106.883V113.6H107.615L111.263 119.828L114.875 113.6H115.607Z" fill="white"/>
<path d="M55.176 72.248L55.176 87H62.568L62.568 63.192H56.744C55.656 65.688 53.736 67.512 49.64 67.768V72.248H55.176ZM81.5873 87.48C93.5873 87.48 95.5713 82.808 95.5713 79.32V79.032C95.5713 75.288 93.2033 71.672 83.2193 71.672H82.8033C75.6353 71.672 73.6513 73.464 72.9153 73.976V73.848C72.9153 72.216 73.6513 68.28 80.5312 68.28C86.0993 68.28 86.7073 70.104 86.8673 70.36H94.5473V70.232C94.5473 67.064 91.9233 62.776 81.1713 62.776H79.8913C68.4033 62.776 65.4593 69.272 65.4593 74.744V75.512C65.4593 80.984 67.9233 87.48 80.1793 87.48H81.5873ZM73.8753 79.224C73.8753 78.008 74.9313 76.664 80.8513 76.664C86.9633 76.664 87.7633 78.104 87.7633 79.288V79.416C87.7633 80.536 86.9633 82.072 80.8513 82.072C74.9633 82.072 73.8753 80.44 73.8753 79.32V79.224ZM126.109 87V78.296H118.781V81.368L103.709 81.368C103.709 80.696 104.349 79.416 109.981 78.392L116.509 77.304C124.317 76.024 125.693 73.752 125.693 70.168V70.104C125.693 66.328 123.421 62.776 112.221 62.776H110.941C98.621 62.776 97.469 68.632 97.469 71.352V71.608L105.245 71.608C105.341 70.424 105.853 68.248 111.837 68.248C117.085 68.248 117.821 69.112 117.821 70.04C117.821 70.776 117.533 71.416 114.301 72.024L108.733 73.176C97.693 75.48 97.053 80.792 97.053 84.312V87L126.109 87ZM138.855 87H146.311V77.624H162.311V87H169.767V63.192H162.311V71.864H146.311V63.192H138.855V87ZM191.274 79.064C199.786 79.064 202.378 75.512 202.378 71.256V70.936C202.378 66.584 199.85 63.192 191.274 63.192H173.418V87H180.874V79.064H191.274ZM180.874 68.6H191.146C193.546 68.6 194.602 69.496 194.602 71.128V71.224C194.602 72.856 193.482 73.72 191.146 73.72H180.874V68.6Z" fill="white"/>
<path d="M51.952 27.6V36H51.088V28.368H49.108V27.6H51.952ZM60.2959 35.232V36H54.4039V35.388L57.8959 31.968C58.3359 31.536 58.6319 31.164 58.7839 30.852C58.9439 30.532 59.0239 30.212 59.0239 29.892C59.0239 29.396 58.8519 29.012 58.5079 28.74C58.1719 28.46 57.6879 28.32 57.0559 28.32C56.0719 28.32 55.3079 28.632 54.7639 29.256L54.1519 28.728C54.4799 28.344 54.8959 28.048 55.3999 27.84C55.9119 27.632 56.4879 27.528 57.1279 27.528C57.9839 27.528 58.6599 27.732 59.1559 28.14C59.6599 28.54 59.9119 29.092 59.9119 29.796C59.9119 30.228 59.8159 30.644 59.6239 31.044C59.4319 31.444 59.0679 31.904 58.5319 32.424L55.6759 35.232H60.2959ZM64.3082 27.6V36H63.4442V28.368H61.4642V27.6H64.3082ZM74.0048 32.052L72.2888 33.792V36H71.4008V27.6H72.2888V32.676L77.2208 27.6H78.2408L74.6048 31.404L78.4928 36H77.4368L74.0048 32.052ZM91.5836 27.6L88.7516 36H87.8156L85.3556 28.836L82.8836 36H81.9596L79.1276 27.6H80.0396L82.4636 34.824L84.9716 27.6H85.7996L88.2716 34.86L90.7316 27.6H91.5836Z" fill="white"/>
</svg>
