<svg width="260" height="148" viewBox="0 0 306 148" fill="none" xmlns="http://www.w3.org/2000/svg">
<path d="M1.552 122.331L1.552 126.759L0.399998 126.759L0.399998 116.571L1.552 116.571L1.552 120.999L13 120.999L13 122.331L1.552 122.331ZM13.108 109.111C13.108 110.359 12.832 111.493 12.28 112.513C11.716 113.521 10.948 114.313 9.976 114.889C9.004 115.453 7.912 115.735 6.7 115.735C5.488 115.735 4.396 115.453 3.424 114.889C2.452 114.313 1.69 113.521 1.138 112.513C0.573998 111.493 0.291998 110.359 0.291998 109.111C0.291998 107.863 0.567998 106.741 1.12 105.745C1.672 104.737 2.44 103.945 3.424 103.369C4.396 102.793 5.488 102.505 6.7 102.505C7.912 102.505 9.01 102.793 9.994 103.369C10.966 103.945 11.728 104.737 12.28 105.745C12.832 106.741 13.108 107.863 13.108 109.111ZM11.92 109.111C11.92 108.115 11.698 107.215 11.254 106.411C10.798 105.607 10.174 104.977 9.382 104.521C8.578 104.065 7.684 103.837 6.7 103.837C5.716 103.837 4.828 104.065 4.036 104.521C3.232 104.977 2.608 105.607 2.164 106.411C1.708 107.215 1.48 108.115 1.48 109.111C1.48 110.107 1.708 111.013 2.164 111.829C2.608 112.633 3.232 113.269 4.036 113.737C4.828 114.193 5.716 114.421 6.7 114.421C7.684 114.421 8.578 114.193 9.382 113.737C10.174 113.269 10.798 112.633 11.254 111.829C11.698 111.013 11.92 110.107 11.92 109.111ZM0.399997 94.8033C0.399997 93.1953 0.783997 91.9353 1.552 91.0233C2.32 90.1113 3.376 89.6553 4.72 89.6553C6.064 89.6553 7.12 90.1113 7.888 91.0233C8.644 91.9353 9.022 93.1953 9.022 94.8033L9.022 98.1873L13 98.1873L13 99.5193L0.399997 99.5193L0.399997 94.8033ZM7.852 94.8393C7.852 93.5913 7.582 92.6373 7.042 91.9773C6.49 91.3173 5.716 90.9873 4.72 90.9873C3.7 90.9873 2.92 91.3173 2.38 91.9773C1.828 92.6373 1.552 93.5913 1.552 94.8393L1.552 98.1873L7.852 98.1873L7.852 94.8393ZM13.108 78.4144C13.108 79.3504 12.958 80.2504 12.658 81.1144C12.358 81.9664 11.962 82.6264 11.47 83.0944L10.444 82.5724C10.9 82.1164 11.272 81.5104 11.56 80.7544C11.836 79.9984 11.974 79.2184 11.974 78.4144C11.974 77.2864 11.77 76.4404 11.362 75.8764C10.942 75.3124 10.402 75.0304 9.742 75.0304C9.238 75.0304 8.836 75.1864 8.536 75.4984C8.236 75.7984 8.008 76.1704 7.852 76.6144C7.684 77.0584 7.504 77.6764 7.312 78.4684C7.072 79.4164 6.844 80.1724 6.628 80.7364C6.4 81.3004 6.058 81.7864 5.602 82.1944C5.146 82.5904 4.528 82.7884 3.748 82.7884C3.112 82.7884 2.536 82.6204 2.02 82.2844C1.492 81.9484 1.072 81.4324 0.759997 80.7364C0.447997 80.0404 0.291996 79.1764 0.291996 78.1444C0.291996 77.4244 0.393996 76.7224 0.597997 76.0384C0.789996 75.3424 1.06 74.7424 1.408 74.2384L2.47 74.6884C2.122 75.2164 1.864 75.7804 1.696 76.3804C1.516 76.9804 1.426 77.5684 1.426 78.1444C1.426 79.2484 1.642 80.0824 2.074 80.6464C2.494 81.1984 3.04 81.4744 3.712 81.4744C4.216 81.4744 4.624 81.3244 4.936 81.0244C5.236 80.7124 5.47 80.3284 5.638 79.8724C5.794 79.4044 5.968 78.7804 6.16 78.0004C6.388 77.0764 6.616 76.3324 6.844 75.7684C7.06 75.1924 7.396 74.7064 7.852 74.3104C8.296 73.9144 8.902 73.7164 9.67 73.7164C10.306 73.7164 10.888 73.8904 11.416 74.2384C11.932 74.5744 12.346 75.0964 12.658 75.8044C12.958 76.5124 13.108 77.3824 13.108 78.4144ZM0.399996 66.0982C0.399995 64.4902 0.783995 63.2302 1.552 62.3182C2.32 61.4062 3.376 60.9502 4.72 60.9502C6.064 60.9502 7.12 61.4062 7.888 62.3182C8.644 63.2302 9.022 64.4902 9.022 66.0982L9.022 69.4822L13 69.4822L13 70.8142L0.399996 70.8142L0.399996 66.0982ZM7.852 66.1342C7.852 64.8862 7.582 63.9322 7.042 63.2722C6.49 62.6122 5.716 62.2822 4.72 62.2822C3.7 62.2822 2.92 62.6122 2.38 63.2722C1.828 63.9322 1.552 64.8862 1.552 66.1342L1.552 69.4822L7.852 69.4822L7.852 66.1342ZM11.848 49.1601L13 49.1601L13 58.0701L0.399995 58.0701L0.399995 49.4301L1.552 49.4301L1.552 56.7381L6.034 56.7381L6.034 50.2221L7.168 50.2221L7.168 56.7381L11.848 56.7381L11.848 49.1601ZM11.848 37.1191L13 37.1191L13 46.0291L0.399995 46.0291L0.399994 37.3891L1.55199 37.3891L1.55199 44.6971L6.034 44.6971L6.03399 38.1811L7.168 38.1811L7.168 44.6971L11.848 44.6971L11.848 37.1191ZM0.399994 33.988L0.399994 28.858C0.399994 27.526 0.669994 26.35 1.20999 25.33C1.73799 24.31 2.48199 23.518 3.44199 22.954C4.38999 22.39 5.47599 22.108 6.69999 22.108C7.92399 22.108 9.01599 22.39 9.97599 22.954C10.924 23.518 11.668 24.31 12.208 25.33C12.736 26.35 13 27.526 13 28.858L13 33.988L0.399994 33.988ZM11.848 28.93C11.848 27.826 11.632 26.86 11.2 26.032C10.756 25.204 10.15 24.562 9.38199 24.106C8.60199 23.65 7.70799 23.422 6.69999 23.422C5.69199 23.422 4.80399 23.65 4.03599 24.106C3.25599 24.562 2.64999 25.204 2.21799 26.032C1.77399 26.86 1.55199 27.826 1.55199 28.93L1.55199 32.656L11.848 32.656L11.848 28.93Z" fill="#3F3E44"/>
<path d="M55.36 121.232V122H49.468V121.388L52.96 117.968C53.4 117.536 53.696 117.164 53.848 116.852C54.008 116.532 54.088 116.212 54.088 115.892C54.088 115.396 53.916 115.012 53.572 114.74C53.236 114.46 52.752 114.32 52.12 114.32C51.136 114.32 50.372 114.632 49.828 115.256L49.216 114.728C49.544 114.344 49.96 114.048 50.464 113.84C50.976 113.632 51.552 113.528 52.192 113.528C53.048 113.528 53.724 113.732 54.22 114.14C54.724 114.54 54.976 115.092 54.976 115.796C54.976 116.228 54.88 116.644 54.688 117.044C54.496 117.444 54.132 117.904 53.596 118.424L50.74 121.232H55.36ZM62.9254 113.6V114.212L59.4094 122H58.4734L61.9294 114.368H57.6094V115.94H56.7574V113.6H62.9254ZM70.3998 121.232V122H64.5078V121.388L67.9998 117.968C68.4398 117.536 68.7358 117.164 68.8878 116.852C69.0478 116.532 69.1278 116.212 69.1278 115.892C69.1278 115.396 68.9558 115.012 68.6118 114.74C68.2758 114.46 67.7918 114.32 67.1598 114.32C66.1758 114.32 65.4118 114.632 64.8678 115.256L64.2558 114.728C64.5838 114.344 64.9998 114.048 65.5038 113.84C66.0158 113.632 66.5918 113.528 67.2318 113.528C68.0878 113.528 68.7638 113.732 69.2598 114.14C69.7638 114.54 70.0158 115.092 70.0158 115.796C70.0158 116.228 69.9198 116.644 69.7278 117.044C69.5358 117.444 69.1718 117.904 68.6358 118.424L65.7798 121.232H70.3998ZM79.1728 118.052L77.4568 119.792V122H76.5688V113.6H77.4568V118.676L82.3888 113.6H83.4088L79.7728 117.404L83.6608 122H82.6048L79.1728 118.052ZM94.424 113.6V122H93.572V115.28L90.272 120.932H89.852L86.552 115.316V122H85.7V113.6H86.432L90.08 119.828L93.692 113.6H94.424ZM100.053 111.896H100.833L96.873 123.2H96.093L100.053 111.896ZM109.401 113.6V122H108.525V118.124H103.269V122H102.381V113.6H103.269V117.344H108.525V113.6H109.401Z" fill="white"/>
<path d="M55.176 72.248L55.176 87H62.568L62.568 63.192H56.744C55.656 65.688 53.736 67.512 49.64 67.768V72.248H55.176ZM81.5873 87.48C93.5873 87.48 95.5713 82.808 95.5713 79.32V79.032C95.5713 75.288 93.2033 71.672 83.2193 71.672H82.8033C75.6353 71.672 73.6513 73.464 72.9153 73.976V73.848C72.9153 72.216 73.6513 68.28 80.5312 68.28C86.0993 68.28 86.7073 70.104 86.8673 70.36H94.5473V70.232C94.5473 67.064 91.9233 62.776 81.1713 62.776H79.8913C68.4033 62.776 65.4593 69.272 65.4593 74.744V75.512C65.4593 80.984 67.9233 87.48 80.1793 87.48H81.5873ZM73.8753 79.224C73.8753 78.008 74.9313 76.664 80.8513 76.664C86.9633 76.664 87.7633 78.104 87.7633 79.288V79.416C87.7633 80.536 86.9633 82.072 80.8513 82.072C74.9633 82.072 73.8753 80.44 73.8753 79.32V79.224ZM118.369 70.936C118.369 72.088 117.377 73.624 111.393 73.624C105.345 73.624 104.513 72.12 104.513 70.936V70.84C104.513 69.72 105.345 68.216 111.393 68.216C117.249 68.216 118.369 69.72 118.369 70.84V70.936ZM112.545 87.48C124.129 87.48 126.817 81.112 126.817 75.512V74.744C126.817 68.504 123.841 62.776 111.969 62.776H110.561C98.2408 62.776 96.6728 67.416 96.6728 70.936V71.224C96.6728 75 99.4568 78.616 109.441 78.616H109.857C116.513 78.616 118.657 76.824 119.329 76.312V76.408C119.329 78.04 118.561 81.976 111.745 81.976C106.241 81.976 105.505 80.248 105.409 79.896L97.6968 79.896V80.024C97.6968 83.096 100.705 87.48 111.265 87.48H112.545ZM139.387 87H146.555V70.52L155.931 87H159.931L169.307 70.52V87L176.667 87V63.192H166.459L158.203 78.008L149.979 63.192H139.387V87ZM198.18 79.064C206.692 79.064 209.284 75.512 209.284 71.256V70.936C209.284 66.584 206.756 63.192 198.18 63.192H180.324V87H187.78V79.064H198.18ZM187.78 68.6H198.052C200.452 68.6 201.508 69.496 201.508 71.128V71.224C201.508 72.856 200.388 73.72 198.052 73.72H187.78V68.6ZM211.762 87H219.218V77.624H235.218V87H242.674V63.192H235.218V71.864H219.218V63.192H211.762V87Z" fill="white"/>
<path d="M53.104 30.972C53.656 30.972 54.144 31.076 54.568 31.284C55 31.492 55.336 31.788 55.576 32.172C55.816 32.548 55.936 32.988 55.936 33.492C55.936 34.004 55.812 34.456 55.564 34.848C55.316 35.24 54.972 35.544 54.532 35.76C54.1 35.968 53.612 36.072 53.068 36.072C51.956 36.072 51.104 35.708 50.512 34.98C49.92 34.244 49.624 33.208 49.624 31.872C49.624 30.936 49.784 30.144 50.104 29.496C50.424 28.848 50.872 28.36 51.448 28.032C52.024 27.696 52.696 27.528 53.464 27.528C54.296 27.528 54.96 27.68 55.456 27.984L55.108 28.68C54.708 28.416 54.164 28.284 53.476 28.284C52.548 28.284 51.82 28.58 51.292 29.172C50.764 29.756 50.5 30.608 50.5 31.728C50.5 31.928 50.512 32.156 50.536 32.412C50.744 31.956 51.076 31.604 51.532 31.356C51.988 31.1 52.512 30.972 53.104 30.972ZM53.032 35.34C53.64 35.34 54.132 35.176 54.508 34.848C54.892 34.512 55.084 34.068 55.084 33.516C55.084 32.964 54.892 32.524 54.508 32.196C54.132 31.868 53.62 31.704 52.972 31.704C52.548 31.704 52.172 31.784 51.844 31.944C51.524 32.104 51.272 32.324 51.088 32.604C50.904 32.884 50.812 33.196 50.812 33.54C50.812 33.86 50.896 34.156 51.064 34.428C51.24 34.7 51.496 34.92 51.832 35.088C52.168 35.256 52.568 35.34 53.032 35.34ZM57.6911 32.376H60.8351V33.12H57.6911V32.376ZM65.6262 36.072C65.0022 36.072 64.4022 35.972 63.8262 35.772C63.2582 35.572 62.8182 35.308 62.5062 34.98L62.8542 34.296C63.1582 34.6 63.5622 34.848 64.0662 35.04C64.5702 35.224 65.0902 35.316 65.6262 35.316C66.3782 35.316 66.9422 35.18 67.3182 34.908C67.6942 34.628 67.8822 34.268 67.8822 33.828C67.8822 33.492 67.7782 33.224 67.5702 33.024C67.3702 32.824 67.1222 32.672 66.8262 32.568C66.5302 32.456 66.1182 32.336 65.5902 32.208C64.9582 32.048 64.4542 31.896 64.0782 31.752C63.7022 31.6 63.3782 31.372 63.1062 31.068C62.8422 30.764 62.7102 30.352 62.7102 29.832C62.7102 29.408 62.8222 29.024 63.0462 28.68C63.2702 28.328 63.6142 28.048 64.0782 27.84C64.5422 27.632 65.1182 27.528 65.8062 27.528C66.2862 27.528 66.7542 27.596 67.2102 27.732C67.6742 27.86 68.0742 28.04 68.4102 28.272L68.1102 28.98C67.7582 28.748 67.3822 28.576 66.9822 28.464C66.5822 28.344 66.1902 28.284 65.8062 28.284C65.0702 28.284 64.5142 28.428 64.1382 28.716C63.7702 28.996 63.5862 29.36 63.5862 29.808C63.5862 30.144 63.6862 30.416 63.8862 30.624C64.0942 30.824 64.3502 30.98 64.6542 31.092C64.9662 31.196 65.3822 31.312 65.9022 31.44C66.5182 31.592 67.0142 31.744 67.3902 31.896C67.7742 32.04 68.0982 32.264 68.3622 32.568C68.6262 32.864 68.7582 33.268 68.7582 33.78C68.7582 34.204 68.6422 34.592 68.4102 34.944C68.1862 35.288 67.8382 35.564 67.3662 35.772C66.8942 35.972 66.3142 36.072 65.6262 36.072ZM74.437 27.6C75.509 27.6 76.349 27.856 76.957 28.368C77.565 28.88 77.869 29.584 77.869 30.48C77.869 31.376 77.565 32.08 76.957 32.592C76.349 33.096 75.509 33.348 74.437 33.348H72.181V36H71.293V27.6H74.437ZM74.413 32.568C75.245 32.568 75.881 32.388 76.321 32.028C76.761 31.66 76.981 31.144 76.981 30.48C76.981 29.8 76.761 29.28 76.321 28.92C75.881 28.552 75.245 28.368 74.413 28.368H72.181V32.568H74.413ZM86.3291 35.232V36H80.3891V27.6H86.1491V28.368H81.2771V31.356H85.6211V32.112H81.2771V35.232H86.3291ZM94.9564 35.232V36H89.0164V27.6H94.7764V28.368H89.9044V31.356H94.2484V32.112H89.9044V35.232H94.9564ZM97.6438 27.6H101.064C101.952 27.6 102.736 27.78 103.416 28.14C104.096 28.492 104.624 28.988 105 29.628C105.376 30.26 105.564 30.984 105.564 31.8C105.564 32.616 105.376 33.344 105 33.984C104.624 34.616 104.096 35.112 103.416 35.472C102.736 35.824 101.952 36 101.064 36H97.6438V27.6ZM101.016 35.232C101.752 35.232 102.396 35.088 102.948 34.8C103.5 34.504 103.928 34.1 104.232 33.588C104.536 33.068 104.688 32.472 104.688 31.8C104.688 31.128 104.536 30.536 104.232 30.024C103.928 29.504 103.5 29.1 102.948 28.812C102.396 28.516 101.752 28.368 101.016 28.368H98.5318V35.232H101.016ZM115.546 36.072C114.714 36.072 113.962 35.888 113.29 35.52C112.626 35.152 112.102 34.644 111.718 33.996C111.342 33.34 111.154 32.608 111.154 31.8C111.154 30.992 111.342 30.264 111.718 29.616C112.102 28.96 112.63 28.448 113.302 28.08C113.974 27.712 114.726 27.528 115.558 27.528C116.182 27.528 116.758 27.632 117.286 27.84C117.814 28.048 118.262 28.352 118.63 28.752L118.066 29.316C117.41 28.652 116.582 28.32 115.582 28.32C114.918 28.32 114.314 28.472 113.77 28.776C113.226 29.08 112.798 29.496 112.486 30.024C112.182 30.552 112.03 31.144 112.03 31.8C112.03 32.456 112.182 33.048 112.486 33.576C112.798 34.104 113.226 34.52 113.77 34.824C114.314 35.128 114.918 35.28 115.582 35.28C116.59 35.28 117.418 34.944 118.066 34.272L118.63 34.836C118.262 35.236 117.81 35.544 117.274 35.76C116.746 35.968 116.17 36.072 115.546 36.072ZM124.62 36.072C123.788 36.072 123.032 35.888 122.352 35.52C121.68 35.144 121.152 34.632 120.768 33.984C120.392 33.336 120.204 32.608 120.204 31.8C120.204 30.992 120.392 30.264 120.768 29.616C121.152 28.968 121.68 28.46 122.352 28.092C123.032 27.716 123.788 27.528 124.62 27.528C125.452 27.528 126.2 27.712 126.864 28.08C127.536 28.448 128.064 28.96 128.448 29.616C128.832 30.264 129.024 30.992 129.024 31.8C129.024 32.608 128.832 33.34 128.448 33.996C128.064 34.644 127.536 35.152 126.864 35.52C126.2 35.888 125.452 36.072 124.62 36.072ZM124.62 35.28C125.284 35.28 125.884 35.132 126.42 34.836C126.956 34.532 127.376 34.116 127.68 33.588C127.984 33.052 128.136 32.456 128.136 31.8C128.136 31.144 127.984 30.552 127.68 30.024C127.376 29.488 126.956 29.072 126.42 28.776C125.884 28.472 125.284 28.32 124.62 28.32C123.956 28.32 123.352 28.472 122.808 28.776C122.272 29.072 121.848 29.488 121.536 30.024C121.232 30.552 121.08 31.144 121.08 31.8C121.08 32.456 121.232 33.052 121.536 33.588C121.848 34.116 122.272 34.532 122.808 34.836C123.352 35.132 123.956 35.28 124.62 35.28ZM138.634 27.6V36H137.902L132.502 29.184V36H131.614V27.6H132.346L137.758 34.416V27.6H138.634ZM144.292 36.072C143.668 36.072 143.068 35.972 142.492 35.772C141.924 35.572 141.484 35.308 141.172 34.98L141.52 34.296C141.824 34.6 142.228 34.848 142.732 35.04C143.236 35.224 143.756 35.316 144.292 35.316C145.044 35.316 145.608 35.18 145.984 34.908C146.36 34.628 146.548 34.268 146.548 33.828C146.548 33.492 146.444 33.224 146.236 33.024C146.036 32.824 145.788 32.672 145.492 32.568C145.196 32.456 144.784 32.336 144.256 32.208C143.624 32.048 143.12 31.896 142.744 31.752C142.368 31.6 142.044 31.372 141.772 31.068C141.508 30.764 141.376 30.352 141.376 29.832C141.376 29.408 141.488 29.024 141.712 28.68C141.936 28.328 142.28 28.048 142.744 27.84C143.208 27.632 143.784 27.528 144.472 27.528C144.952 27.528 145.42 27.596 145.876 27.732C146.34 27.86 146.74 28.04 147.076 28.272L146.776 28.98C146.424 28.748 146.048 28.576 145.648 28.464C145.248 28.344 144.856 28.284 144.472 28.284C143.736 28.284 143.18 28.428 142.804 28.716C142.436 28.996 142.252 29.36 142.252 29.808C142.252 30.144 142.352 30.416 142.552 30.624C142.76 30.824 143.016 30.98 143.32 31.092C143.632 31.196 144.048 31.312 144.568 31.44C145.184 31.592 145.68 31.744 146.056 31.896C146.44 32.04 146.764 32.264 147.028 32.568C147.292 32.864 147.424 33.268 147.424 33.78C147.424 34.204 147.308 34.592 147.076 34.944C146.852 35.288 146.504 35.564 146.032 35.772C145.56 35.972 144.98 36.072 144.292 36.072ZM151.473 28.368H148.521V27.6H155.313V28.368H152.361V36H151.473V28.368ZM162.178 33.756H157.498L156.49 36H155.566L159.406 27.6H160.282L164.122 36H163.186L162.178 33.756ZM161.854 33.036L159.838 28.524L157.822 33.036H161.854ZM173.132 27.6V36H172.4L167 29.184V36H166.112V27.6H166.844L172.256 34.416V27.6H173.132ZM178.105 28.368H175.153V27.6H181.945V28.368H178.993V36H178.105V28.368ZM182.929 32.376H186.073V33.12H182.929V32.376ZM197.483 27.6V36H196.631V29.28L193.331 34.932H192.911L189.611 29.316V36H188.759V27.6H189.491L193.139 33.828L196.751 27.6H197.483ZM206.76 35.232V36H200.82V27.6H206.58V28.368H201.708V31.356H206.052V32.112H201.708V35.232H206.76ZM211.764 36.072C211.14 36.072 210.54 35.972 209.964 35.772C209.396 35.572 208.956 35.308 208.644 34.98L208.992 34.296C209.296 34.6 209.7 34.848 210.204 35.04C210.708 35.224 211.228 35.316 211.764 35.316C212.516 35.316 213.08 35.18 213.456 34.908C213.832 34.628 214.02 34.268 214.02 33.828C214.02 33.492 213.916 33.224 213.708 33.024C213.508 32.824 213.26 32.672 212.964 32.568C212.668 32.456 212.256 32.336 211.728 32.208C211.096 32.048 210.592 31.896 210.216 31.752C209.84 31.6 209.516 31.372 209.244 31.068C208.98 30.764 208.848 30.352 208.848 29.832C208.848 29.408 208.96 29.024 209.184 28.68C209.408 28.328 209.752 28.048 210.216 27.84C210.68 27.632 211.256 27.528 211.944 27.528C212.424 27.528 212.892 27.596 213.348 27.732C213.812 27.86 214.212 28.04 214.548 28.272L214.248 28.98C213.896 28.748 213.52 28.576 213.12 28.464C212.72 28.344 212.328 28.284 211.944 28.284C211.208 28.284 210.652 28.428 210.276 28.716C209.908 28.996 209.724 29.36 209.724 29.808C209.724 30.144 209.824 30.416 210.024 30.624C210.232 30.824 210.488 30.98 210.792 31.092C211.104 31.196 211.52 31.312 212.04 31.44C212.656 31.592 213.152 31.744 213.528 31.896C213.912 32.04 214.236 32.264 214.5 32.568C214.764 32.864 214.896 33.268 214.896 33.78C214.896 34.204 214.78 34.592 214.548 34.944C214.324 35.288 213.976 35.564 213.504 35.772C213.032 35.972 212.452 36.072 211.764 36.072ZM224.451 27.6V36H223.575V32.124H218.319V36H217.431V27.6H218.319V31.344H223.575V27.6H224.451Z" fill="white"/>
</svg>
