<svg width="260" height="148" viewBox="0 0 306 148" fill="none" xmlns="http://www.w3.org/2000/svg">
<path d="M1.552 109.332L1.552 113.76L0.399998 113.76L0.399997 103.572L1.552 103.572L1.552 108L13 108L13 109.332L1.552 109.332ZM13.108 96.1119C13.108 97.3599 12.832 98.4939 12.28 99.5139C11.716 100.522 10.948 101.314 9.976 101.89C9.004 102.454 7.912 102.736 6.7 102.736C5.488 102.736 4.396 102.454 3.424 101.89C2.452 101.314 1.69 100.522 1.138 99.5139C0.573997 98.4939 0.291997 97.3599 0.291997 96.1119C0.291997 94.8639 0.567997 93.7419 1.12 92.7459C1.672 91.7379 2.44 90.9459 3.424 90.3699C4.396 89.7939 5.488 89.5059 6.7 89.5059C7.912 89.5059 9.01 89.7939 9.994 90.3699C10.966 90.9459 11.728 91.7379 12.28 92.7459C12.832 93.7419 13.108 94.8639 13.108 96.1119ZM11.92 96.1119C11.92 95.1159 11.698 94.2159 11.254 93.4119C10.798 92.6079 10.174 91.9779 9.382 91.5219C8.578 91.0659 7.684 90.8379 6.7 90.8379C5.716 90.8379 4.828 91.0659 4.036 91.5219C3.232 91.9779 2.608 92.6079 2.164 93.4119C1.708 94.2159 1.48 95.1159 1.48 96.1119C1.48 97.1079 1.708 98.0139 2.164 98.8299C2.608 99.6339 3.232 100.27 4.036 100.738C4.828 101.194 5.716 101.422 6.7 101.422C7.684 101.422 8.578 101.194 9.382 100.738C10.174 100.27 10.798 99.6339 11.254 98.8299C11.698 98.0139 11.92 97.1079 11.92 96.1119ZM13 77.9163L8.95 80.7963C8.986 81.1203 9.004 81.4563 9.004 81.8043L9.004 85.1883L13 85.1883L13 86.5203L0.399996 86.5203L0.399996 81.8043C0.399996 80.1963 0.783996 78.9363 1.552 78.0243C2.32 77.1123 3.376 76.6563 4.72 76.6563C5.704 76.6563 6.538 76.9083 7.222 77.4123C7.894 77.9043 8.38 78.6123 8.68 79.5363L13 76.4583L13 77.9163ZM7.87 81.8403C7.87 80.5923 7.594 79.6383 7.042 78.9783C6.49 78.3183 5.716 77.9883 4.72 77.9883C3.7 77.9883 2.92 78.3183 2.38 78.9783C1.828 79.6383 1.552 80.5923 1.552 81.8403L1.552 85.1883L7.87 85.1883L7.87 81.8403ZM14.062 60.8225C14.53 61.2065 14.884 61.6625 15.124 62.1905C15.376 62.7065 15.502 63.2705 15.502 63.8825C15.502 64.6265 15.316 65.3345 14.944 66.0065C14.584 66.6665 13.972 67.4105 13.108 68.2385C13.072 69.4505 12.772 70.5425 12.208 71.5145C11.644 72.4865 10.882 73.2485 9.922 73.8005C8.962 74.3525 7.888 74.6285 6.7 74.6285C5.488 74.6285 4.396 74.3465 3.424 73.7825C2.452 73.2065 1.69 72.4145 1.138 71.4065C0.573996 70.3865 0.291996 69.2525 0.291996 68.0045C0.291996 66.7565 0.567996 65.6345 1.12 64.6385C1.672 63.6305 2.44 62.8385 3.424 62.2625C4.396 61.6865 5.488 61.3985 6.7 61.3985C7.756 61.3985 8.728 61.6205 9.616 62.0645C10.492 62.4965 11.224 63.1085 11.812 63.9005C12.4 64.6805 12.79 65.5805 12.982 66.6005C13.954 65.6765 14.44 64.7645 14.44 63.8645C14.44 62.9285 14.056 62.1305 13.288 61.4705L14.062 60.8225ZM6.7 73.3145C7.684 73.3145 8.572 73.0865 9.364 72.6305C10.156 72.1625 10.78 71.5265 11.236 70.7225C11.692 69.9065 11.92 69.0005 11.92 68.0045C11.92 67.0085 11.692 66.1085 11.236 65.3045C10.78 64.5005 10.156 63.8705 9.364 63.4145C8.572 62.9585 7.684 62.7305 6.7 62.7305C5.716 62.7305 4.828 62.9585 4.036 63.4145C3.244 63.8705 2.62 64.5005 2.164 65.3045C1.708 66.1085 1.48 67.0085 1.48 68.0045C1.48 69.0005 1.708 69.9065 2.164 70.7225C2.62 71.5265 3.244 72.1625 4.036 72.6305C4.828 73.0865 5.716 73.3145 6.7 73.3145ZM13.108 53.3368C13.108 54.9688 12.64 56.2408 11.704 57.1528C10.768 58.0648 9.406 58.5208 7.618 58.5208L0.399995 58.5208L0.399995 57.1888L7.564 57.1888C9.028 57.1888 10.12 56.8588 10.84 56.1988C11.56 55.5388 11.92 54.5848 11.92 53.3368C11.92 52.0768 11.56 51.1168 10.84 50.4568C10.12 49.7968 9.028 49.4668 7.564 49.4668L0.399995 49.4668L0.399995 48.1708L7.618 48.1708C9.406 48.1708 10.768 48.6268 11.704 49.5388C12.64 50.4388 13.108 51.7048 13.108 53.3368ZM11.848 35.247L13 35.247L13 44.157L0.399995 44.157L0.399994 35.517L1.55199 35.517L1.55199 42.825L6.03399 42.825L6.03399 36.309L7.168 36.309L7.168 42.825L11.848 42.825L11.848 35.247Z" fill="#3F3E44"/>
<path d="M52.24 113.528C53.352 113.528 54.204 113.896 54.796 114.632C55.388 115.36 55.684 116.392 55.684 117.728C55.684 118.664 55.524 119.456 55.204 120.104C54.884 120.752 54.436 121.244 53.86 121.58C53.284 121.908 52.612 122.072 51.844 122.072C51.012 122.072 50.348 121.92 49.852 121.616L50.2 120.92C50.6 121.184 51.144 121.316 51.832 121.316C52.76 121.316 53.488 121.024 54.016 120.44C54.544 119.848 54.808 118.992 54.808 117.872C54.808 117.664 54.796 117.436 54.772 117.188C54.564 117.644 54.232 118 53.776 118.256C53.32 118.504 52.796 118.628 52.204 118.628C51.652 118.628 51.16 118.524 50.728 118.316C50.304 118.108 49.972 117.816 49.732 117.44C49.492 117.056 49.372 116.612 49.372 116.108C49.372 115.596 49.496 115.144 49.744 114.752C49.992 114.36 50.332 114.06 50.764 113.852C51.204 113.636 51.696 113.528 52.24 113.528ZM52.336 117.896C52.76 117.896 53.132 117.816 53.452 117.656C53.78 117.496 54.036 117.276 54.22 116.996C54.404 116.716 54.496 116.404 54.496 116.06C54.496 115.74 54.408 115.444 54.232 115.172C54.064 114.9 53.812 114.68 53.476 114.512C53.14 114.344 52.74 114.26 52.276 114.26C51.668 114.26 51.172 114.428 50.788 114.764C50.412 115.092 50.224 115.532 50.224 116.084C50.224 116.636 50.412 117.076 50.788 117.404C51.172 117.732 51.688 117.896 52.336 117.896ZM61.0165 116.972C61.5685 116.972 62.0565 117.076 62.4805 117.284C62.9125 117.492 63.2485 117.788 63.4885 118.172C63.7285 118.548 63.8485 118.988 63.8485 119.492C63.8485 120.004 63.7245 120.456 63.4765 120.848C63.2285 121.24 62.8845 121.544 62.4445 121.76C62.0125 121.968 61.5245 122.072 60.9805 122.072C59.8685 122.072 59.0165 121.708 58.4245 120.98C57.8325 120.244 57.5365 119.208 57.5365 117.872C57.5365 116.936 57.6965 116.144 58.0165 115.496C58.3365 114.848 58.7845 114.36 59.3605 114.032C59.9365 113.696 60.6085 113.528 61.3765 113.528C62.2085 113.528 62.8725 113.68 63.3685 113.984L63.0205 114.68C62.6205 114.416 62.0765 114.284 61.3885 114.284C60.4605 114.284 59.7325 114.58 59.2045 115.172C58.6765 115.756 58.4125 116.608 58.4125 117.728C58.4125 117.928 58.4245 118.156 58.4485 118.412C58.6565 117.956 58.9885 117.604 59.4445 117.356C59.9005 117.1 60.4245 116.972 61.0165 116.972ZM60.9445 121.34C61.5525 121.34 62.0445 121.176 62.4205 120.848C62.8045 120.512 62.9965 120.068 62.9965 119.516C62.9965 118.964 62.8045 118.524 62.4205 118.196C62.0445 117.868 61.5325 117.704 60.8845 117.704C60.4605 117.704 60.0845 117.784 59.7565 117.944C59.4365 118.104 59.1845 118.324 59.0005 118.604C58.8165 118.884 58.7245 119.196 58.7245 119.54C58.7245 119.86 58.8085 120.156 58.9765 120.428C59.1525 120.7 59.4085 120.92 59.7445 121.088C60.0805 121.256 60.4805 121.34 60.9445 121.34ZM66.2142 122.06C66.0382 122.06 65.8862 121.996 65.7582 121.868C65.6382 121.74 65.5782 121.584 65.5782 121.4C65.5782 121.216 65.6382 121.064 65.7582 120.944C65.8862 120.816 66.0382 120.752 66.2142 120.752C66.3902 120.752 66.5422 120.816 66.6702 120.944C66.7982 121.064 66.8622 121.216 66.8622 121.4C66.8622 121.584 66.7982 121.74 66.6702 121.868C66.5422 121.996 66.3902 122.06 66.2142 122.06ZM71.6823 117.2C72.5623 117.248 73.2303 117.488 73.6863 117.92C74.1503 118.344 74.3823 118.9 74.3823 119.588C74.3823 120.068 74.2663 120.496 74.0343 120.872C73.8023 121.24 73.4583 121.532 73.0023 121.748C72.5463 121.964 71.9903 122.072 71.3343 122.072C70.7263 122.072 70.1503 121.976 69.6063 121.784C69.0703 121.584 68.6383 121.32 68.3103 120.992L68.7303 120.308C69.0103 120.596 69.3823 120.832 69.8463 121.016C70.3103 121.192 70.8063 121.28 71.3343 121.28C72.0223 121.28 72.5543 121.132 72.9303 120.836C73.3063 120.532 73.4943 120.116 73.4943 119.588C73.4943 119.068 73.3063 118.66 72.9303 118.364C72.5543 118.068 71.9863 117.92 71.2263 117.92H70.6263V117.284L72.9543 114.368H68.6583V113.6H74.0583V114.212L71.6823 117.2ZM80.6844 113.6H81.5724V121.232H86.2764V122H80.6844V113.6ZM93.6428 117.668C94.1948 117.788 94.6188 118.028 94.9148 118.388C95.2188 118.74 95.3708 119.196 95.3708 119.756C95.3708 120.476 95.1028 121.032 94.5668 121.424C94.0388 121.808 93.2548 122 92.2148 122H88.3508V113.6H91.9748C92.9108 113.6 93.6348 113.788 94.1468 114.164C94.6668 114.54 94.9268 115.072 94.9268 115.76C94.9268 116.224 94.8108 116.62 94.5788 116.948C94.3548 117.268 94.0428 117.508 93.6428 117.668ZM89.2388 114.332V117.38H91.9148C92.5948 117.38 93.1188 117.252 93.4868 116.996C93.8548 116.732 94.0388 116.352 94.0388 115.856C94.0388 115.36 93.8548 114.984 93.4868 114.728C93.1188 114.464 92.5948 114.332 91.9148 114.332H89.2388ZM92.2028 121.268C92.9548 121.268 93.5228 121.14 93.9068 120.884C94.2908 120.628 94.4828 120.228 94.4828 119.684C94.4828 118.636 93.7228 118.112 92.2028 118.112H89.2388V121.268H92.2028ZM98.8857 114.368V117.668H103.23V118.436H98.8857V122H97.9977V113.6H103.758V114.368H98.8857ZM106.203 118.424C105.995 118.424 105.815 118.348 105.663 118.196C105.511 118.044 105.435 117.864 105.435 117.656C105.435 117.448 105.511 117.268 105.663 117.116C105.815 116.964 105.995 116.888 106.203 116.888C106.411 116.888 106.591 116.964 106.743 117.116C106.895 117.268 106.971 117.448 106.971 117.656C106.971 117.864 106.895 118.044 106.743 118.196C106.591 118.348 106.411 118.424 106.203 118.424ZM110.445 114.368V117.668H114.789V118.436H110.445V122H109.557V113.6H115.317V114.368H110.445ZM119.441 114.368H116.489V113.6H123.281V114.368H120.329V122H119.441V114.368Z" fill="white"/>
<path d="M55.176 72.248L55.176 87H62.568L62.568 63.192H56.744C55.656 65.688 53.736 67.512 49.64 67.768V72.248H55.176ZM80.7233 87.416C92.4673 87.416 94.9953 83.288 94.9953 79.288V79.064C94.9953 75.384 92.3393 73.752 90.4513 73.24C91.9873 72.888 94.2593 71.608 94.2593 69.112V68.92C94.2593 66.36 92.7873 62.776 80.0513 62.776H78.7073C66.0673 62.776 65.1073 68.44 65.1073 70.616V70.936H72.8833C72.9792 70.424 73.0433 68.216 79.4113 68.216C85.9393 68.216 86.4513 69.432 86.4513 70.296C86.4513 71.096 86.0033 71.864 83.3472 71.864H75.3153V77.4H83.7313C86.5473 77.4 87.0593 78.328 87.0593 79.256C87.0593 80.216 86.6753 81.912 79.8913 81.912C73.3313 81.912 72.9792 78.904 72.8833 78.296H65.0433V78.552C65.0433 80.984 66.2593 87.416 79.2193 87.416H80.7233ZM130.025 74.552C130.025 70.328 128.073 62.776 113.961 62.776H112.553C98.473 62.776 96.489 70.328 96.489 74.552V75.512C96.489 79.704 98.473 87.416 112.553 87.416H113.961C128.105 87.416 130.025 79.672 130.025 75.512V74.552ZM122.217 75.224C122.217 77.944 120.521 81.592 113.257 81.592C105.993 81.592 104.297 77.848 104.297 75.16V74.776C104.297 72.088 105.833 68.568 113.257 68.568C120.553 68.568 122.217 72.088 122.217 74.776V75.224ZM138.27 81.4H130.558V87H138.27V81.4ZM155.002 87.416C165.882 87.416 168.186 82.84 168.186 78.968V78.776C168.186 74.424 166.042 70.776 156.602 70.776H156.314C150.49 70.776 148.282 72.632 147.834 72.984V68.728H166.522V63.192L140.506 63.192V77.816H147.77C147.834 77.592 148.506 75.896 154.234 75.896C159.706 75.896 160.378 77.496 160.378 78.808V79C160.378 80.312 159.706 81.912 154.234 81.912C148.474 81.912 147.962 79.896 147.866 79.544H139.994V79.768C139.994 82.104 141.53 87.416 153.498 87.416H155.002ZM180.512 63.192V87H187.872V71.224L204.032 87H211.392V63.192H204.032V78.168L188.832 63.192H180.512ZM234.73 87H241.898V70.52L251.274 87H255.274L264.65 70.52V87H272.01V63.192H261.802L253.546 78.008L245.322 63.192H234.73V87Z" fill="white"/>
<path d="M54.436 31.596C54.964 31.772 55.368 32.036 55.648 32.388C55.936 32.74 56.08 33.164 56.08 33.66C56.08 34.148 55.948 34.576 55.684 34.944C55.42 35.304 55.04 35.584 54.544 35.784C54.056 35.976 53.48 36.072 52.816 36.072C51.808 36.072 51.016 35.856 50.44 35.424C49.864 34.992 49.576 34.404 49.576 33.66C49.576 33.156 49.712 32.732 49.984 32.388C50.264 32.036 50.668 31.772 51.196 31.596C50.764 31.428 50.436 31.188 50.212 30.876C49.988 30.556 49.876 30.18 49.876 29.748C49.876 29.068 50.14 28.528 50.668 28.128C51.204 27.728 51.92 27.528 52.816 27.528C53.408 27.528 53.924 27.62 54.364 27.804C54.812 27.98 55.16 28.236 55.408 28.572C55.656 28.908 55.78 29.3 55.78 29.748C55.78 30.18 55.664 30.556 55.432 30.876C55.2 31.188 54.868 31.428 54.436 31.596ZM50.74 29.772C50.74 30.236 50.924 30.604 51.292 30.876C51.66 31.148 52.168 31.284 52.816 31.284C53.464 31.284 53.972 31.148 54.34 30.876C54.716 30.604 54.904 30.24 54.904 29.784C54.904 29.312 54.712 28.94 54.328 28.668C53.952 28.396 53.448 28.26 52.816 28.26C52.176 28.26 51.668 28.396 51.292 28.668C50.924 28.94 50.74 29.308 50.74 29.772ZM52.816 35.34C53.56 35.34 54.14 35.188 54.556 34.884C54.98 34.58 55.192 34.168 55.192 33.648C55.192 33.128 54.98 32.72 54.556 32.424C54.14 32.12 53.56 31.968 52.816 31.968C52.08 31.968 51.5 32.12 51.076 32.424C50.66 32.72 50.452 33.128 50.452 33.648C50.452 34.176 50.66 34.592 51.076 34.896C51.492 35.192 52.072 35.34 52.816 35.34ZM58.6535 34.752C58.8375 34.752 58.9895 34.816 59.1095 34.944C59.2295 35.064 59.2895 35.216 59.2895 35.4C59.2895 35.496 59.2735 35.6 59.2415 35.712C59.2175 35.824 59.1775 35.952 59.1215 36.096L58.6175 37.752H58.0415L58.4495 36.012C58.3215 35.972 58.2175 35.9 58.1375 35.796C58.0575 35.684 58.0175 35.552 58.0175 35.4C58.0175 35.216 58.0775 35.064 58.1975 34.944C58.3175 34.816 58.4695 34.752 58.6535 34.752ZM66.0657 31.596C66.5937 31.772 66.9977 32.036 67.2777 32.388C67.5657 32.74 67.7097 33.164 67.7097 33.66C67.7097 34.148 67.5777 34.576 67.3137 34.944C67.0497 35.304 66.6697 35.584 66.1737 35.784C65.6857 35.976 65.1097 36.072 64.4457 36.072C63.4377 36.072 62.6457 35.856 62.0697 35.424C61.4937 34.992 61.2057 34.404 61.2057 33.66C61.2057 33.156 61.3417 32.732 61.6137 32.388C61.8937 32.036 62.2977 31.772 62.8257 31.596C62.3937 31.428 62.0657 31.188 61.8417 30.876C61.6177 30.556 61.5057 30.18 61.5057 29.748C61.5057 29.068 61.7697 28.528 62.2977 28.128C62.8337 27.728 63.5497 27.528 64.4457 27.528C65.0377 27.528 65.5537 27.62 65.9937 27.804C66.4417 27.98 66.7897 28.236 67.0377 28.572C67.2857 28.908 67.4097 29.3 67.4097 29.748C67.4097 30.18 67.2937 30.556 67.0617 30.876C66.8297 31.188 66.4977 31.428 66.0657 31.596ZM62.3697 29.772C62.3697 30.236 62.5537 30.604 62.9217 30.876C63.2897 31.148 63.7977 31.284 64.4457 31.284C65.0937 31.284 65.6017 31.148 65.9697 30.876C66.3457 30.604 66.5337 30.24 66.5337 29.784C66.5337 29.312 66.3417 28.94 65.9577 28.668C65.5817 28.396 65.0777 28.26 64.4457 28.26C63.8057 28.26 63.2977 28.396 62.9217 28.668C62.5537 28.94 62.3697 29.308 62.3697 29.772ZM64.4457 35.34C65.1897 35.34 65.7697 35.188 66.1857 34.884C66.6097 34.58 66.8217 34.168 66.8217 33.648C66.8217 33.128 66.6097 32.72 66.1857 32.424C65.7697 32.12 65.1897 31.968 64.4457 31.968C63.7097 31.968 63.1297 32.12 62.7057 32.424C62.2897 32.72 62.0817 33.128 62.0817 33.648C62.0817 34.176 62.2897 34.592 62.7057 34.896C63.1217 35.192 63.7017 35.34 64.4457 35.34ZM72.854 36.072C72.206 36.072 71.626 35.9 71.114 35.556C70.61 35.212 70.214 34.72 69.926 34.08C69.646 33.432 69.506 32.672 69.506 31.8C69.506 30.928 69.646 30.172 69.926 29.532C70.214 28.884 70.61 28.388 71.114 28.044C71.626 27.7 72.206 27.528 72.854 27.528C73.502 27.528 74.078 27.7 74.582 28.044C75.094 28.388 75.494 28.884 75.782 29.532C76.07 30.172 76.214 30.928 76.214 31.8C76.214 32.672 76.07 33.432 75.782 34.08C75.494 34.72 75.094 35.212 74.582 35.556C74.078 35.9 73.502 36.072 72.854 36.072ZM72.854 35.28C73.342 35.28 73.77 35.144 74.138 34.872C74.514 34.6 74.806 34.204 75.014 33.684C75.222 33.164 75.326 32.536 75.326 31.8C75.326 31.064 75.222 30.436 75.014 29.916C74.806 29.396 74.514 29 74.138 28.728C73.77 28.456 73.342 28.32 72.854 28.32C72.366 28.32 71.934 28.456 71.558 28.728C71.19 29 70.902 29.396 70.694 29.916C70.486 30.436 70.382 31.064 70.382 31.8C70.382 32.536 70.486 33.164 70.694 33.684C70.902 34.204 71.19 34.6 71.558 34.872C71.934 35.144 72.366 35.28 72.854 35.28ZM81.3993 36.072C80.7513 36.072 80.1713 35.9 79.6593 35.556C79.1553 35.212 78.7593 34.72 78.4713 34.08C78.1913 33.432 78.0513 32.672 78.0513 31.8C78.0513 30.928 78.1913 30.172 78.4713 29.532C78.7593 28.884 79.1553 28.388 79.6593 28.044C80.1713 27.7 80.7513 27.528 81.3993 27.528C82.0473 27.528 82.6233 27.7 83.1273 28.044C83.6393 28.388 84.0393 28.884 84.3273 29.532C84.6153 30.172 84.7593 30.928 84.7593 31.8C84.7593 32.672 84.6153 33.432 84.3273 34.08C84.0393 34.72 83.6393 35.212 83.1273 35.556C82.6233 35.9 82.0473 36.072 81.3993 36.072ZM81.3993 35.28C81.8873 35.28 82.3153 35.144 82.6833 34.872C83.0593 34.6 83.3513 34.204 83.5593 33.684C83.7673 33.164 83.8713 32.536 83.8713 31.8C83.8713 31.064 83.7673 30.436 83.5593 29.916C83.3513 29.396 83.0593 29 82.6833 28.728C82.3153 28.456 81.8873 28.32 81.3993 28.32C80.9113 28.32 80.4793 28.456 80.1033 28.728C79.7353 29 79.4473 29.396 79.2393 29.916C79.0313 30.436 78.9273 31.064 78.9273 31.8C78.9273 32.536 79.0313 33.164 79.2393 33.684C79.4473 34.204 79.7353 34.6 80.1033 34.872C80.4793 35.144 80.9113 35.28 81.3993 35.28ZM96.8173 36L94.8973 33.3C94.6813 33.324 94.4573 33.336 94.2253 33.336H91.9693V36H91.0813V27.6H94.2253C95.2973 27.6 96.1373 27.856 96.7453 28.368C97.3533 28.88 97.6573 29.584 97.6573 30.48C97.6573 31.136 97.4893 31.692 97.1533 32.148C96.8253 32.596 96.3533 32.92 95.7373 33.12L97.7893 36H96.8173ZM94.2013 32.58C95.0333 32.58 95.6693 32.396 96.1093 32.028C96.5493 31.66 96.7693 31.144 96.7693 30.48C96.7693 29.8 96.5493 29.28 96.1093 28.92C95.6693 28.552 95.0333 28.368 94.2013 28.368H91.9693V32.58H94.2013ZM103.497 27.6C104.569 27.6 105.409 27.856 106.017 28.368C106.625 28.88 106.929 29.584 106.929 30.48C106.929 31.376 106.625 32.08 106.017 32.592C105.409 33.096 104.569 33.348 103.497 33.348H101.241V36H100.353V27.6H103.497ZM103.473 32.568C104.305 32.568 104.941 32.388 105.381 32.028C105.821 31.66 106.041 31.144 106.041 30.48C106.041 29.8 105.821 29.28 105.381 28.92C104.941 28.552 104.305 28.368 103.473 28.368H101.241V32.568H103.473ZM118.173 27.6V36H117.321V29.28L114.021 34.932H113.601L110.301 29.316V36H109.449V27.6H110.181L113.829 33.828L117.441 27.6H118.173Z" fill="white"/>
<circle cx="223" cy="76" r="3" fill="white"/>
</svg>
